<?xml version="1.0" standalone="no"?>
<!DOCTYPE svg PUBLIC "-//W3C//DTD SVG 20010904//EN"
 "http://www.w3.org/TR/2001/REC-SVG-20010904/DTD/svg10.dtd">
<svg version="1.0" xmlns="http://www.w3.org/2000/svg"
 width="512.000000pt" height="512.000000pt" viewBox="0 0 512.000000 512.000000"
 preserveAspectRatio="xMidYMid meet">
<metadata>
Created by potrace 1.11, written by Peter Selinger 2001-2013
</metadata>
<g transform="translate(0.000000,512.000000) scale(0.100000,-0.100000)"
fill="#000000" stroke="none">
<path d="M2332 5109 c-580 -52 -1129 -304 -1551 -714 -215 -208 -369 -418
-502 -680 -162 -321 -245 -625 -271 -993 -32 -447 61 -902 271 -1317 133 -262
287 -472 502 -680 377 -366 839 -600 1364 -690 406 -70 887 -26 1280 117 345
126 651 317 914 573 215 208 369 418 502 680 210 415 303 870 271 1317 -26
368 -109 672 -271 993 -133 262 -287 472 -502 680 -536 520 -1266 780 -2007
714z m-244 -2204 c3 -582 -4 -774 -34 -888 -51 -198 -176 -317 -380 -363 -119
-26 -342 -16 -449 20 -85 29 -165 74 -230 129 l-39 34 99 110 99 109 54 -32
c68 -41 167 -64 274 -64 131 1 183 27 222 110 21 44 21 58 24 728 l3 682 177
-2 177 -3 3 -570z m700 563 c5 -7 121 -240 256 -518 136 -278 250 -508 254
-512 4 -4 121 229 261 518 l255 524 173 0 173 0 0 -915 0 -915 -175 0 -175 0
-2 541 -3 541 -169 -355 c-105 -224 -181 -371 -204 -398 -56 -65 -130 -86
-191 -55 -57 30 -99 94 -219 342 -67 137 -147 299 -176 359 l-55 110 0 -543
-1 -542 -177 2 -178 3 -3 900 c-1 495 0 906 3 913 3 9 47 12 173 12 124 0 172
-3 180 -12z"/>
</g>
</svg>
