<svg xmlns="http://www.w3.org/2000/svg" version="1.0" viewBox="0 0 512 512"><defs/><circle cx="256" cy="256" r="256" fill="#fff"/><path fill="#DB3344" d="M233.2 1.1c-58 5.2-112.9 30.4-155.1 71.4-21.5 20.8-36.9 41.8-50.2 68C11.7 172.6 3.4 203 .8 239.8c-3.2 44.7 6.1 90.2 27.1 131.7 13.3 26.2 28.7 47.2 50.2 68 37.7 36.6 83.9 60 136.4 69 40.6 7 88.7 2.6 128-11.7 34.5-12.6 65.1-31.7 91.4-57.3 21.5-20.8 36.9-41.8 50.2-68 21-41.5 30.3-87 27.1-131.7-2.6-36.8-10.9-67.2-27.1-99.3-13.3-26.2-28.7-47.2-50.2-68-53.6-52-126.6-78-200.7-71.4zm-24.4 220.4c.3 58.2-.4 77.4-3.4 88.8-5.1 19.8-17.6 31.7-38 36.3-11.9 2.6-34.2 1.6-44.9-2-8.5-2.9-16.5-7.4-23-12.9l-3.9-3.4 9.9-11 9.9-10.9 5.4 3.2c6.8 4.1 16.7 6.4 27.4 6.4 13.1-.1 18.3-2.7 22.2-11 2.1-4.4 2.1-5.8 2.4-72.8l.3-68.2 17.7.2 17.7.3.3 57zm70-56.3c.5.7 12.1 24 25.6 51.8 13.6 27.8 25 50.8 25.4 51.2.4.4 12.1-22.9 26.1-51.8l25.5-52.4H416v183h-35l-.2-54.1-.3-54.1-16.9 35.5c-10.5 22.4-18.1 37.1-20.4 39.8-5.6 6.5-13 8.6-19.1 5.5-5.7-3-9.9-9.4-21.9-34.2-6.7-13.7-14.7-29.9-17.6-35.9l-5.5-11v54.3L279 347l-17.7-.2-17.8-.3-.3-90c-.1-49.5 0-90.6.3-91.3.3-.9 4.7-1.2 17.3-1.2 12.4 0 17.2.3 18 1.2z"/></svg>
